<svg xmlns="http://www.w3.org/2000/svg" viewBox="0 0 332.875 144.223"><defs><style>.cls-1{fill:#534741;}.cls-2{fill:#231c19;}.cls-3{fill:#736357;}.cls-4{fill:#3f3632;}.cls-5{fill:#efcc60;}.cls-6{fill:#333;}.cls-7{fill:#f15a24;}.cls-8{fill:#d19d50;}.cls-9{fill:#4d4d4d;}.cls-10{fill:#f4d378;}.cls-11{fill:#c1272d;opacity:0.6;}.cls-12{fill:#edccb2;stroke:#754c24;stroke-width:0.5px;opacity:0.9;}.cls-12,.cls-28,.cls-29{stroke-miterlimit:10;}.cls-13{fill:#ff8327;}.cls-13,.cls-25{opacity:0.5;}.cls-14{fill:none;}.cls-15,.cls-16{fill:#4f4648;}.cls-16,.cls-24{fill-rule:evenodd;}.cls-17{fill:#3a312d;}.cls-18{fill:#998675;}.cls-19{fill:#7a4044;}.cls-20{fill:#230709;}.cls-21{fill:#935259;}.cls-22{fill:#3d181c;}.cls-23,.cls-24{fill:#5c280e;}.cls-25{fill:#fff;}.cls-26{fill:#c7b299;}.cls-27,.cls-28,.cls-29{fill:#bc2a35;}.cls-28{stroke:#fff;}.cls-28,.cls-29{stroke-width:8px;}.cls-29{stroke:#000;}</style></defs><title>tank_assets</title><g id="cannon_for_projectile" data-name="cannon for projectile"><path class="cls-1" d="M416.746,357.232c-1.979-2.59-4.621-3.9-5.9-2.917a1.551,1.551,0,0,0-.42.52l-67.612,58.309,8.066,8.066s59.55-51.381,66.557-57.253a1.557,1.557,0,0,0,.578-.265C419.294,362.713,418.726,359.821,416.746,357.232Z" transform="translate(-342.813 -276.988)"/><ellipse class="cls-2" cx="414.396" cy="358.628" rx="2.017" ry="4.984" transform="translate(-475.819 55.407) rotate(-38.13)"/><polyline class="cls-3" points="60.331 85.33 57.757 80.94 61.79 78.251 64.003 82.164 60.331 85.33"/><polyline class="cls-4" points="65.801 80.613 61.79 78.251 64.003 82.164 65.801 80.613"/></g><g id="shell"><path class="cls-5" d="M480.313,331.574s-1.218,1.66-2.1,2.77a4.733,4.733,0,0,1-.9.98,4.93,4.93,0,0,0-.688.635c-2.223,2.235-9.062,9.615-9.062,9.615s.5.5-.5,1-3.25-1.25-3.25-1.5-1.75-1.75-1.25-3c0,0,.25-.75.75-.5,0,0,6.222-6.375,9.562-9.662.515-.508.96-.943,1.305-1.268.29-.272.508-.47.633-.57a7.285,7.285,0,0,1,2.75-2c1.5-.5,3-1,3.75-.75S480.313,331.574,480.313,331.574Z" transform="translate(-342.813 -276.988)"/><path class="cls-6" d="M480.313,331.574s-1.218,1.66-2.1,2.77c-.03.035-.058.07-.086.105-.13.163-.252.31-.36.435-.229.27-.4.44-.449.44l-.01,0a5.9,5.9,0,0,0-.651.605l-.027.027a11.647,11.647,0,0,1-2.208-2.077c-.752-.873-1.354-1.7-1.542-1.97l.5-.493c.117-.115.23-.222.337-.327.171-.165.328-.315.468-.448.025-.025.05-.047.075-.07.253-.237.442-.41.558-.5a7.285,7.285,0,0,1,2.75-2c1.5-.5,3-1,3.75-.75S480.313,331.574,480.313,331.574Z" transform="translate(-342.813 -276.988)"/><path class="cls-7" d="M477.3,335.327c-.058.027-.38.387-.74.747a20.2,20.2,0,0,1-2.146-2.192c-.752-.873-1.354-1.7-1.542-1.97l.5-.493C473.788,332.039,476.16,335.532,477.3,335.327Z" transform="translate(-342.813 -276.988)"/><path class="cls-7" d="M478.122,334.449c-.13.163-.252.31-.36.435a47.716,47.716,0,0,1-4.05-3.792c.171-.165.328-.315.468-.448.025-.025.05-.047.075-.07A20.6,20.6,0,0,0,478.122,334.449Z" transform="translate(-342.813 -276.988)"/><path class="cls-6" d="M474.188,330.7c.333.335.625.693.92,1.045l.439.513a1.73,1.73,0,0,0,.2.2c.03.026-.01-.015-.051-.007a.887.887,0,0,1,.18.056,1.846,1.846,0,0,1,.175.112,7.612,7.612,0,0,1,1.024.976,8.682,8.682,0,0,1,.862,1.1,12.665,12.665,0,0,1-1.126-.824c-.363-.277-.71-.6-1.054-.851a1.145,1.145,0,0,0-.112-.079c-.02,0,.062.014.017,0a.4.4,0,0,1-.2-.087,1.613,1.613,0,0,1-.278-.3,5.656,5.656,0,0,1-.389-.594A7.7,7.7,0,0,1,474.188,330.7Z" transform="translate(-342.813 -276.988)"/><path class="cls-6" d="M473.188,331.7a13.371,13.371,0,0,1,1.444,1.611l-.016-.021a14.829,14.829,0,0,1,2.072,2.66,14.751,14.751,0,0,1-2.429-2.339l-.013-.016,0,0A13.312,13.312,0,0,1,473.188,331.7Z" transform="translate(-342.813 -276.988)"/><path class="cls-8" d="M463.438,341.449a4.529,4.529,0,0,0,1.374,2.693,5.424,5.424,0,0,0,1.29.737l.764.283a7.156,7.156,0,0,1,.822.287,5.806,5.806,0,0,1-.874.2,5.948,5.948,0,0,1-.9-.014,3.587,3.587,0,0,1-1.741-.729,2.944,2.944,0,0,1-.97-1.663A2.723,2.723,0,0,1,463.438,341.449Z" transform="translate(-342.813 -276.988)"/><path class="cls-9" d="M476.188,330.2c.25-.25,2-1.75,2.75-1.5s-1.25,2.25-1.5,2A4.224,4.224,0,0,0,476.188,330.2Z" transform="translate(-342.813 -276.988)"/><path class="cls-10" d="M475.393,335.226s-8.58,9.1-8.83,8.848c0,0,0,.75.5.75S476.474,335.878,475.393,335.226Z" transform="translate(-342.813 -276.988)"/></g><g id="projectile"><ellipse class="cls-11" cx="107.792" cy="40.033" rx="5.208" ry="5.197"/><circle class="cls-12" cx="107.761" cy="40.158" r="3.898"/></g><g id="fire"><path class="cls-13" d="M432.438,354.1s7.058-4.383,8.153-2.586c0,0-2.906-2.532-1.3-3.122s5.841-2.134,6.119-1.228c0,0-1.5-2.616-5.105-.966,0,0,3.144-4.631,3.7-4.107s-1.13-1.588-3.07,1.633c0,0,.439-1.969-.2-2.614a2.221,2.221,0,0,1-1.137,2.281c-1.43.834,1.406-7.074,2.381-6.48,0,0-5.544,1-6.316,4.312s-1.391-1.954-.938-2.092-2.565,1.825-2.062,3.308-2.757,2.331-2.757,2.331-.8-1.64-.188-2.075a5.494,5.494,0,0,0-2.78,4.046S433.273,348.635,432.438,354.1Z" transform="translate(-342.813 -276.988)"/></g><g id="tank_cannon" data-name="tank cannon"><path class="cls-1" d="M581.105,277.932c-.577-.754-1.347-1.135-1.719-.849a.455.455,0,0,0-.123.151l-19.7,16.99,2.35,2.35s17.351-14.971,19.393-16.682a.453.453,0,0,0,.168-.077C581.847,279.53,581.682,278.687,581.105,277.932Z" transform="translate(-342.813 -276.988)"/><ellipse class="cls-2" cx="580.42" cy="278.339" rx="0.588" ry="1.452" transform="translate(-390.818 140.786) rotate(-38.13)"/><polyline class="cls-3" points="234.329 2.427 233.579 1.147 234.754 0.364 235.399 1.504 234.329 2.427"/><polyline class="cls-4" points="235.923 1.052 234.754 0.364 235.399 1.504 235.923 1.052"/></g><g id="tank_base" data-name="tank base"><rect class="cls-3" x="198.905" y="55.317" width="50.915" height="17.519" rx="8.759"/><polygon class="cls-14" points="238.015 74.708 241.061 74.714 241.061 70.964 238.015 70.959 238.015 74.708"/><rect class="cls-15" x="238.273" y="71.952" width="2.517" height="0.625"/><rect class="cls-15" x="238.273" y="73.078" width="2.517" height="0.625"/><polygon class="cls-14" points="234.97 74.708 238.015 74.714 238.015 70.964 234.97 70.959 234.97 74.708"/><rect class="cls-15" x="235.228" y="71.952" width="2.517" height="0.625"/><rect class="cls-15" x="235.228" y="73.078" width="2.517" height="0.625"/><polygon class="cls-14" points="231.924 74.708 234.97 74.714 234.97 70.964 231.924 70.959 231.924 74.708"/><rect class="cls-15" x="232.183" y="71.952" width="2.517" height="0.625"/><rect class="cls-15" x="232.183" y="73.078" width="2.517" height="0.625"/><polygon class="cls-14" points="228.879 74.708 231.924 74.714 231.924 70.964 228.879 70.959 228.879 74.708"/><rect class="cls-15" x="229.137" y="71.952" width="2.517" height="0.625"/><rect class="cls-15" x="229.137" y="73.078" width="2.517" height="0.625"/><polygon class="cls-14" points="225.834 74.708 228.879 74.714 228.879 70.964 225.834 70.959 225.834 74.708"/><rect class="cls-15" x="226.092" y="71.952" width="2.517" height="0.625"/><rect class="cls-15" x="226.092" y="73.078" width="2.517" height="0.625"/><polygon class="cls-14" points="222.788 74.708 225.834 74.714 225.834 70.964 222.788 70.959 222.788 74.708"/><rect class="cls-15" x="223.046" y="71.952" width="2.517" height="0.625"/><rect class="cls-15" x="223.046" y="73.078" width="2.517" height="0.625"/><polygon class="cls-14" points="219.743 74.708 222.788 74.714 222.788 70.964 219.743 70.959 219.743 74.708"/><rect class="cls-15" x="220.001" y="71.952" width="2.517" height="0.625"/><rect class="cls-15" x="220.001" y="73.078" width="2.517" height="0.625"/><polygon class="cls-14" points="216.698 74.708 219.743 74.714 219.743 70.964 216.698 70.959 216.698 74.708"/><rect class="cls-15" x="216.956" y="71.952" width="2.517" height="0.625"/><rect class="cls-15" x="216.956" y="73.078" width="2.517" height="0.625"/><polygon class="cls-14" points="213.652 74.708 216.698 74.714 216.698 70.964 213.652 70.959 213.652 74.708"/><rect class="cls-15" x="213.91" y="71.952" width="2.517" height="0.625"/><rect class="cls-15" x="213.91" y="73.078" width="2.517" height="0.625"/><polygon class="cls-14" points="210.607 74.708 213.652 74.714 213.652 70.964 210.607 70.959 210.607 74.708"/><rect class="cls-15" x="210.865" y="71.952" width="2.517" height="0.625"/><rect class="cls-15" x="210.865" y="73.078" width="2.517" height="0.625"/><polygon class="cls-14" points="207.54 74.703 210.607 74.714 210.607 70.964 207.584 70.954 207.54 74.703"/><rect class="cls-15" x="207.82" y="71.952" width="2.517" height="0.625"/><rect class="cls-15" x="207.82" y="73.078" width="2.517" height="0.625"/><path class="cls-14" d="M546.739,351.009a10.474,10.474,0,0,0,3.613.688l.044-3.75a6.742,6.742,0,0,1-2.337-.448Z" transform="translate(-342.813 -276.988)"/><path class="cls-16" d="M550.141,348.922a7.52,7.52,0,0,1-2.214-.413l-.2.592a8.154,8.154,0,0,0,2.391.446Z" transform="translate(-342.813 -276.988)"/><path class="cls-16" d="M547.562,349.574l-.2.591a9.27,9.27,0,0,0,2.707.506l.027-.625A8.674,8.674,0,0,1,547.562,349.574Z" transform="translate(-342.813 -276.988)"/><path class="cls-14" d="M543.573,349.141a10.709,10.709,0,0,0,3.164,1.873l1.32-3.51a6.977,6.977,0,0,1-2.047-1.212Z" transform="translate(-342.813 -276.988)"/><path class="cls-16" d="M547.481,348.346a8.325,8.325,0,0,1-1.939-1.15l-.393.487a8.975,8.975,0,0,0,2.094,1.241Z" transform="translate(-342.813 -276.988)"/><path class="cls-16" d="M544.835,348.073l-.392.486a10.115,10.115,0,0,0,2.371,1.406l.238-.578A9.522,9.522,0,0,1,544.835,348.073Z" transform="translate(-342.813 -276.988)"/><path class="cls-14" d="M541.234,346.307a10.34,10.34,0,0,0,2.335,2.838l2.438-2.849a6.609,6.609,0,0,1-1.513-1.841Z" transform="translate(-342.813 -276.988)"/><path class="cls-16" d="M545.185,346.883a7.287,7.287,0,0,1-1.434-1.739l-.534.324a7.89,7.89,0,0,0,1.547,1.877Z" transform="translate(-342.813 -276.988)"/><path class="cls-16" d="M542.789,345.728l-.534.325a9.056,9.056,0,0,0,1.751,2.124l.421-.462A8.438,8.438,0,0,1,542.789,345.728Z" transform="translate(-342.813 -276.988)"/><path class="cls-14" d="M540,342.839a10.713,10.713,0,0,0,1.225,3.471l3.26-1.853a6.967,6.967,0,0,1-.788-2.241Z" transform="translate(-342.813 -276.988)"/><path class="cls-16" d="M543.512,344.733a8.381,8.381,0,0,1-.756-2.122l-.613.122a9.03,9.03,0,0,0,.816,2.292Z" transform="translate(-342.813 -276.988)"/><path class="cls-16" d="M541.652,342.83l-.613.122a10.153,10.153,0,0,0,.925,2.6l.553-.291A9.576,9.576,0,0,1,541.652,342.83Z" transform="translate(-342.813 -276.988)"/><path class="cls-14" d="M540.023,339.167A10.373,10.373,0,0,0,540,342.84l3.7-.623a6.632,6.632,0,0,1,.017-2.384Z" transform="translate(-342.813 -276.988)"/><path class="cls-16" d="M542.685,342.141a7.51,7.51,0,0,1,.016-2.255l-.619-.093a8.2,8.2,0,0,0-.017,2.433Z" transform="translate(-342.813 -276.988)"/><path class="cls-16" d="M541.588,339.719l-.618-.093a9.232,9.232,0,0,0-.019,2.752l.619-.085A8.642,8.642,0,0,1,541.588,339.719Z" transform="translate(-342.813 -276.988)"/><path class="cls-14" d="M541.3,335.716a10.715,10.715,0,0,0-1.28,3.45l3.69.666a6.963,6.963,0,0,1,.829-2.226Z" transform="translate(-342.813 -276.988)"/><path class="cls-16" d="M542.778,339.417a8.677,8.677,0,0,1,.779-2.114l-.549-.3a9.3,9.3,0,0,0-.842,2.283Z" transform="translate(-342.813 -276.988)"/><path class="cls-16" d="M542.569,336.764l-.549-.3a10.428,10.428,0,0,0-.954,2.588l.611.13A9.811,9.811,0,0,1,542.569,336.764Z" transform="translate(-342.813 -276.988)"/><path class="cls-14" d="M543.666,332.905a10.578,10.578,0,0,0-2.373,2.808l3.239,1.89a6.8,6.8,0,0,1,1.538-1.82Z" transform="translate(-342.813 -276.988)"/><path class="cls-16" d="M543.8,336.9a7.521,7.521,0,0,1,1.457-1.72l-.415-.468a8.147,8.147,0,0,0-1.572,1.856Z" transform="translate(-342.813 -276.988)"/><path class="cls-16" d="M544.515,334.335l-.415-.468a9.327,9.327,0,0,0-1.779,2.1l.53.332A8.678,8.678,0,0,1,544.515,334.335Z" transform="translate(-342.813 -276.988)"/><path class="cls-14" d="M546.857,331.078a10.691,10.691,0,0,0-3.195,1.823l2.4,2.877a6.966,6.966,0,0,1,2.069-1.175Z" transform="translate(-342.813 -276.988)"/><path class="cls-16" d="M545.625,334.871a7.71,7.71,0,0,1,1.954-1.123l-.231-.581a8.322,8.322,0,0,0-2.109,1.212Z" transform="translate(-342.813 -276.988)"/><path class="cls-16" d="M547.164,332.7l-.231-.581a9.46,9.46,0,0,0-2.388,1.373l.386.492A8.831,8.831,0,0,1,547.164,332.7Z" transform="translate(-342.813 -276.988)"/><path class="cls-14" d="M550.477,330.433a10.882,10.882,0,0,0-3.622.639l1.278,3.526a7.118,7.118,0,0,1,2.344-.415Z" transform="translate(-342.813 -276.988)"/><path class="cls-16" d="M548.024,333.584a7.83,7.83,0,0,1,2.221-.382l-.018-.625a8.456,8.456,0,0,0-2.4.413Z" transform="translate(-342.813 -276.988)"/><path class="cls-16" d="M550.213,332.077l-.019-.625a9.587,9.587,0,0,0-2.715.469l.195.594A8.955,8.955,0,0,1,550.213,332.077Z" transform="translate(-342.813 -276.988)"/><polygon class="cls-14" points="210.71 53.446 207.665 53.44 207.665 57.19 210.71 57.195 210.71 53.446"/><rect class="cls-15" x="207.936" y="55.576" width="2.517" height="0.625"/><rect class="cls-15" x="207.936" y="54.451" width="2.517" height="0.625"/><polygon class="cls-14" points="213.756 53.446 210.71 53.44 210.71 57.19 213.756 57.195 213.756 53.446"/><rect class="cls-15" x="210.981" y="55.576" width="2.517" height="0.625"/><rect class="cls-15" x="210.981" y="54.451" width="2.517" height="0.625"/><polygon class="cls-14" points="216.801 53.446 213.756 53.44 213.756 57.19 216.801 57.195 216.801 53.446"/><rect class="cls-15" x="214.026" y="55.576" width="2.517" height="0.625"/><rect class="cls-15" x="214.026" y="54.451" width="2.517" height="0.625"/><polygon class="cls-14" points="219.846 53.446 216.801 53.44 216.801 57.19 219.846 57.195 219.846 53.446"/><rect class="cls-15" x="217.072" y="55.576" width="2.517" height="0.625"/><rect class="cls-15" x="217.072" y="54.451" width="2.517" height="0.625"/><polygon class="cls-14" points="222.892 53.446 219.846 53.44 219.846 57.19 222.892 57.195 222.892 53.446"/><rect class="cls-15" x="220.117" y="55.576" width="2.517" height="0.625"/><rect class="cls-15" x="220.117" y="54.451" width="2.517" height="0.625"/><polygon class="cls-14" points="225.937 53.446 222.892 53.44 222.892 57.19 225.937 57.195 225.937 53.446"/><rect class="cls-15" x="223.162" y="55.576" width="2.517" height="0.625"/><rect class="cls-15" x="223.162" y="54.451" width="2.517" height="0.625"/><polygon class="cls-14" points="228.982 53.446 225.937 53.44 225.937 57.19 228.982 57.195 228.982 53.446"/><rect class="cls-15" x="226.208" y="55.576" width="2.517" height="0.625"/><rect class="cls-15" x="226.208" y="54.451" width="2.517" height="0.625"/><polygon class="cls-14" points="232.028 53.446 228.982 53.44 228.982 57.19 232.028 57.195 232.028 53.446"/><rect class="cls-15" x="229.253" y="55.576" width="2.517" height="0.625"/><rect class="cls-15" x="229.253" y="54.451" width="2.517" height="0.625"/><polygon class="cls-14" points="235.073 53.446 232.028 53.44 232.028 57.19 235.073 57.195 235.073 53.446"/><rect class="cls-15" x="232.298" y="55.576" width="2.517" height="0.625"/><rect class="cls-15" x="232.298" y="54.451" width="2.517" height="0.625"/><polygon class="cls-14" points="238.119 53.446 235.073 53.44 235.073 57.19 238.119 57.195 238.119 53.446"/><rect class="cls-15" x="235.344" y="55.576" width="2.517" height="0.625"/><rect class="cls-15" x="235.344" y="54.451" width="2.517" height="0.625"/><polygon class="cls-14" points="241.186 53.451 238.119 53.44 238.119 57.19 241.142 57.2 241.186 53.451"/><rect class="cls-15" x="238.389" y="55.576" width="2.517" height="0.625"/><rect class="cls-15" x="238.389" y="54.451" width="2.517" height="0.625"/><path class="cls-14" d="M587.611,331.121a10.47,10.47,0,0,0-3.613-.688l-.044,3.75a6.742,6.742,0,0,1,2.338.447Z" transform="translate(-342.813 -276.988)"/><path class="cls-16" d="M584.209,333.208a7.494,7.494,0,0,1,2.215.413l.2-.592a8.147,8.147,0,0,0-2.39-.446Z" transform="translate(-342.813 -276.988)"/><path class="cls-16" d="M586.788,332.556l.2-.591a9.244,9.244,0,0,0-2.708-.506l-.026.624A8.642,8.642,0,0,1,586.788,332.556Z" transform="translate(-342.813 -276.988)"/><path class="cls-14" d="M590.778,332.989a10.73,10.73,0,0,0-3.165-1.874l-1.32,3.51a6.989,6.989,0,0,1,2.047,1.213Z" transform="translate(-342.813 -276.988)"/><path class="cls-16" d="M586.87,333.783a8.416,8.416,0,0,1,1.939,1.15l.392-.487a9.025,9.025,0,0,0-2.093-1.241Z" transform="translate(-342.813 -276.988)"/><path class="cls-16" d="M589.515,334.057l.392-.487a10.139,10.139,0,0,0-2.37-1.4l-.239.578A9.5,9.5,0,0,1,589.515,334.057Z" transform="translate(-342.813 -276.988)"/><path class="cls-14" d="M593.117,335.823a10.359,10.359,0,0,0-2.335-2.839l-2.438,2.85a6.609,6.609,0,0,1,1.512,1.841Z" transform="translate(-342.813 -276.988)"/><path class="cls-16" d="M589.166,335.247a7.311,7.311,0,0,1,1.434,1.739l.534-.325a7.978,7.978,0,0,0-1.547-1.877Z" transform="translate(-342.813 -276.988)"/><path class="cls-16" d="M591.561,336.4l.534-.325a9.057,9.057,0,0,0-1.751-2.125l-.421.463A8.394,8.394,0,0,1,591.561,336.4Z" transform="translate(-342.813 -276.988)"/><path class="cls-14" d="M594.347,339.291a10.7,10.7,0,0,0-1.225-3.471l-3.261,1.852a6.949,6.949,0,0,1,.788,2.242Z" transform="translate(-342.813 -276.988)"/><path class="cls-16" d="M590.839,337.4a8.466,8.466,0,0,1,.756,2.123l.613-.122a9.062,9.062,0,0,0-.816-2.293Z" transform="translate(-342.813 -276.988)"/><path class="cls-16" d="M592.7,339.3l.613-.122a10.164,10.164,0,0,0-.924-2.6l-.553.292A9.528,9.528,0,0,1,592.7,339.3Z" transform="translate(-342.813 -276.988)"/><path class="cls-14" d="M594.327,342.963a10.35,10.35,0,0,0,.025-3.673l-3.7.623a6.6,6.6,0,0,1-.017,2.383Z" transform="translate(-342.813 -276.988)"/><path class="cls-16" d="M591.666,339.989a7.576,7.576,0,0,1-.016,2.255l.618.093a8.166,8.166,0,0,0,.017-2.433Z" transform="translate(-342.813 -276.988)"/><path class="cls-16" d="M592.763,342.411l.618.093a9.3,9.3,0,0,0,.019-2.752l-.62.084A8.648,8.648,0,0,1,592.763,342.411Z" transform="translate(-342.813 -276.988)"/><path class="cls-14" d="M593.052,346.414a10.717,10.717,0,0,0,1.281-3.45l-3.69-.667a6.968,6.968,0,0,1-.829,2.227Z" transform="translate(-342.813 -276.988)"/><path class="cls-16" d="M591.573,342.712a8.672,8.672,0,0,1-.78,2.115l.549.3a9.27,9.27,0,0,0,.842-2.283Z" transform="translate(-342.813 -276.988)"/><path class="cls-16" d="M591.781,345.365l.549.3a10.384,10.384,0,0,0,.955-2.587l-.612-.13A9.764,9.764,0,0,1,591.781,345.365Z" transform="translate(-342.813 -276.988)"/><path class="cls-14" d="M590.685,349.225a10.574,10.574,0,0,0,2.372-2.808l-3.238-1.89a6.806,6.806,0,0,1-1.539,1.82Z" transform="translate(-342.813 -276.988)"/><path class="cls-16" d="M590.546,345.233a7.571,7.571,0,0,1-1.457,1.72l.415.468a8.182,8.182,0,0,0,1.572-1.857Z" transform="translate(-342.813 -276.988)"/><path class="cls-16" d="M589.835,347.8l.415.468a9.281,9.281,0,0,0,1.779-2.1l-.53-.331A8.627,8.627,0,0,1,589.835,347.8Z" transform="translate(-342.813 -276.988)"/><path class="cls-14" d="M587.493,351.052a10.7,10.7,0,0,0,3.195-1.823l-2.4-2.878a6.945,6.945,0,0,1-2.069,1.176Z" transform="translate(-342.813 -276.988)"/><path class="cls-16" d="M588.725,347.259a7.717,7.717,0,0,1-1.953,1.123l.23.581a8.365,8.365,0,0,0,2.109-1.212Z" transform="translate(-342.813 -276.988)"/><path class="cls-16" d="M587.187,349.428l.23.581a9.479,9.479,0,0,0,2.389-1.373l-.386-.492A8.878,8.878,0,0,1,587.187,349.428Z" transform="translate(-342.813 -276.988)"/><path class="cls-14" d="M583.873,351.7a10.872,10.872,0,0,0,3.622-.638l-1.278-3.526a7.118,7.118,0,0,1-2.344.415Z" transform="translate(-342.813 -276.988)"/><path class="cls-16" d="M586.326,348.545a7.831,7.831,0,0,1-2.221.383l.018.625a8.464,8.464,0,0,0,2.4-.414Z" transform="translate(-342.813 -276.988)"/><path class="cls-16" d="M584.138,350.052l.018.625a9.579,9.579,0,0,0,2.715-.468l-.195-.594A8.941,8.941,0,0,1,584.138,350.052Z" transform="translate(-342.813 -276.988)"/><ellipse class="cls-17" cx="209.439" cy="64.039" rx="7.391" ry="6.703"/><ellipse class="cls-17" cx="224.439" cy="64.039" rx="7.391" ry="6.703"/><ellipse class="cls-17" cx="239.439" cy="64.039" rx="7.391" ry="6.703"/><path class="cls-3" d="M584.786,329.074H584.1c-.175-5.084-4.77-9.157-10.417-9.157H553.7a2.341,2.341,0,0,0-2.268,1.54,1.866,1.866,0,0,0-.1.605v7.012h-1.746a1.527,1.527,0,0,0-1.526,1.527v3.723h38.25V330.6A1.527,1.527,0,0,0,584.786,329.074Z" transform="translate(-342.813 -276.988)"/><path class="cls-18" d="M584.11,329.374v1.807c0,.055,0,.109-.008.164a34.529,34.529,0,0,1-14.885.267c-8.515-1.59-15.255-5.642-17.785-10.155a2.341,2.341,0,0,1,2.268-1.54h19.985C579.443,319.917,584.11,324.151,584.11,329.374Z" transform="translate(-342.813 -276.988)"/></g><g id="enemy_cannon" data-name="enemy cannon"><path class="cls-19" d="M635.441,278.335c.577-.754,1.347-1.135,1.719-.85a.458.458,0,0,1,.123.152l19.7,16.99-2.35,2.35S637.282,282.006,635.24,280.3a.439.439,0,0,1-.168-.078C634.7,279.932,634.864,279.09,635.441,278.335Z" transform="translate(-342.813 -276.988)"/><ellipse class="cls-20" cx="636.126" cy="278.742" rx="1.452" ry="0.588" transform="translate(-318.723 330.029) rotate(-51.87)"/><polyline class="cls-21" points="296.592 2.829 297.342 1.55 296.167 0.767 295.522 1.907 296.592 2.829"/><polyline class="cls-22" points="294.998 1.455 296.167 0.767 295.522 1.907 294.998 1.455"/></g><g id="enemy"><rect class="cls-19" x="278.788" y="55.8" width="50.915" height="17.519" rx="8.759"/><polygon class="cls-14" points="290.593 71.447 287.548 71.441 287.548 75.191 290.593 75.197 290.593 71.447"/><rect class="cls-23" x="287.818" y="73.578" width="2.517" height="0.625"/><rect class="cls-23" x="287.818" y="72.453" width="2.517" height="0.625"/><polygon class="cls-14" points="293.638 71.447 290.593 71.441 290.593 75.191 293.638 75.197 293.638 71.447"/><rect class="cls-23" x="290.864" y="73.578" width="2.517" height="0.625"/><rect class="cls-23" x="290.864" y="72.453" width="2.517" height="0.625"/><polygon class="cls-14" points="296.684 71.447 293.638 71.441 293.638 75.191 296.684 75.197 296.684 71.447"/><rect class="cls-23" x="293.909" y="73.578" width="2.517" height="0.625"/><rect class="cls-23" x="293.909" y="72.453" width="2.517" height="0.625"/><polygon class="cls-14" points="299.729 71.447 296.684 71.441 296.684 75.191 299.729 75.197 299.729 71.447"/><rect class="cls-23" x="296.954" y="73.578" width="2.517" height="0.625"/><rect class="cls-23" x="296.954" y="72.453" width="2.517" height="0.625"/><polygon class="cls-14" points="302.775 71.447 299.729 71.441 299.729 75.191 302.775 75.197 302.775 71.447"/><rect class="cls-23" x="300" y="73.578" width="2.517" height="0.625"/><rect class="cls-23" x="300" y="72.453" width="2.517" height="0.625"/><polygon class="cls-14" points="305.82 71.447 302.775 71.441 302.775 75.191 305.82 75.197 305.82 71.447"/><rect class="cls-23" x="303.045" y="73.578" width="2.517" height="0.625"/><rect class="cls-23" x="303.045" y="72.453" width="2.517" height="0.625"/><polygon class="cls-14" points="308.865 71.447 305.82 71.441 305.82 75.191 308.865 75.197 308.865 71.447"/><rect class="cls-23" x="306.091" y="73.578" width="2.517" height="0.625"/><rect class="cls-23" x="306.091" y="72.453" width="2.517" height="0.625"/><polygon class="cls-14" points="311.911 71.447 308.865 71.441 308.865 75.191 311.911 75.197 311.911 71.447"/><rect class="cls-23" x="309.136" y="73.578" width="2.517" height="0.625"/><rect class="cls-23" x="309.136" y="72.453" width="2.517" height="0.625"/><polygon class="cls-14" points="314.956 71.447 311.911 71.441 311.911 75.191 314.956 75.197 314.956 71.447"/><rect class="cls-23" x="312.181" y="73.578" width="2.517" height="0.625"/><rect class="cls-23" x="312.181" y="72.453" width="2.517" height="0.625"/><polygon class="cls-14" points="318.001 71.447 314.956 71.441 314.956 75.191 318.001 75.197 318.001 71.447"/><rect class="cls-23" x="315.227" y="73.578" width="2.517" height="0.625"/><rect class="cls-23" x="315.227" y="72.453" width="2.517" height="0.625"/><polygon class="cls-14" points="321.025 71.442 318.001 71.441 318.001 75.191 321.068 75.191 321.025 71.442"/><rect class="cls-23" x="318.272" y="73.578" width="2.517" height="0.625"/><rect class="cls-23" x="318.272" y="72.453" width="2.517" height="0.625"/><path class="cls-14" d="M666.176,347.987a6.723,6.723,0,0,1-2.339.437l.044,3.75a10.506,10.506,0,0,0,3.615-.677Z" transform="translate(-342.813 -276.988)"/><path class="cls-24" d="M664.167,351.171a9.265,9.265,0,0,0,2.712-.507l-.2-.591a8.682,8.682,0,0,1-2.537.473Z" transform="translate(-342.813 -276.988)"/><path class="cls-24" d="M666.515,349.6l-.2-.592a7.521,7.521,0,0,1-2.219.414l.026.625A8.188,8.188,0,0,0,666.515,349.6Z" transform="translate(-342.813 -276.988)"/><path class="cls-14" d="M668.227,346.779a6.984,6.984,0,0,1-2.053,1.2l1.32,3.51a10.735,10.735,0,0,0,3.171-1.864Z" transform="translate(-342.813 -276.988)"/><path class="cls-24" d="M667.426,350.464a10.131,10.131,0,0,0,2.375-1.409l-.392-.486a9.5,9.5,0,0,1-2.221,1.316Z" transform="translate(-342.813 -276.988)"/><path class="cls-24" d="M669.1,348.179l-.392-.486a8.4,8.4,0,0,1-1.944,1.152l.239.578A8.971,8.971,0,0,0,669.1,348.179Z" transform="translate(-342.813 -276.988)"/><path class="cls-14" d="M669.744,344.94a6.582,6.582,0,0,1-1.521,1.834l2.438,2.85a10.367,10.367,0,0,0,2.344-2.832Z" transform="translate(-342.813 -276.988)"/><path class="cls-24" d="M670.239,348.673a9.069,9.069,0,0,0,1.754-2.129l-.534-.325a8.426,8.426,0,0,1-1.641,1.991Z" transform="translate(-342.813 -276.988)"/><path class="cls-24" d="M671.032,345.96l-.534-.325a7.323,7.323,0,0,1-1.437,1.743l.421.463A7.942,7.942,0,0,0,671.032,345.96Z" transform="translate(-342.813 -276.988)"/><path class="cls-14" d="M670.538,342.7a6.955,6.955,0,0,1-.8,2.238L673,346.789a10.685,10.685,0,0,0,1.235-3.467Z" transform="translate(-342.813 -276.988)"/><path class="cls-24" d="M672.285,346.041a10.193,10.193,0,0,0,.927-2.6l-.613-.122a9.557,9.557,0,0,1-.867,2.433Z" transform="translate(-342.813 -276.988)"/><path class="cls-24" d="M672.108,343.219l-.613-.123a8.414,8.414,0,0,1-.758,2.128l.553.292A9.07,9.07,0,0,0,672.108,343.219Z" transform="translate(-342.813 -276.988)"/><path class="cls-14" d="M670.526,340.314a6.638,6.638,0,0,1,.006,2.385l3.7.623a10.378,10.378,0,0,0-.014-3.674Z" transform="translate(-342.813 -276.988)"/><path class="cls-24" d="M673.3,342.863a9.272,9.272,0,0,0-.019-2.758l-.618.093a8.682,8.682,0,0,1,.018,2.58Z" transform="translate(-342.813 -276.988)"/><path class="cls-24" d="M672.168,340.273l-.618.093a7.543,7.543,0,0,1,.016,2.26l.619.084A8.159,8.159,0,0,0,672.168,340.273Z" transform="translate(-342.813 -276.988)"/><path class="cls-14" d="M669.7,338.085a6.97,6.97,0,0,1,.818,2.231l3.69-.667a10.72,10.72,0,0,0-1.27-3.454Z" transform="translate(-342.813 -276.988)"/><path class="cls-24" d="M673.185,339.532a10.414,10.414,0,0,0-.956-2.593l-.549.3a9.852,9.852,0,0,1,.894,2.424Z" transform="translate(-342.813 -276.988)"/><path class="cls-24" d="M671.241,337.478l-.549.3a8.662,8.662,0,0,1,.781,2.119l.612-.13A9.336,9.336,0,0,0,671.241,337.478Z" transform="translate(-342.813 -276.988)"/><path class="cls-14" d="M668.167,336.26a6.836,6.836,0,0,1,1.53,1.828l3.238-1.89a10.554,10.554,0,0,0-2.364-2.815Z" transform="translate(-342.813 -276.988)"/><path class="cls-24" d="M671.927,336.441a9.287,9.287,0,0,0-1.782-2.1l-.415.468a8.66,8.66,0,0,1,1.667,1.969Z" transform="translate(-342.813 -276.988)"/><path class="cls-24" d="M669.4,335.178l-.414.468a7.583,7.583,0,0,1,1.46,1.724l.529-.332A8.181,8.181,0,0,0,669.4,335.178Z" transform="translate(-342.813 -276.988)"/><path class="cls-14" d="M666.1,335.079a6.94,6.94,0,0,1,2.063,1.186l2.4-2.878a10.7,10.7,0,0,0-3.19-1.833Z" transform="translate(-342.813 -276.988)"/><path class="cls-24" d="M669.7,333.962a9.485,9.485,0,0,0-2.394-1.375l-.23.581a8.885,8.885,0,0,1,2.238,1.286Z" transform="translate(-342.813 -276.988)"/><path class="cls-24" d="M666.892,333.633l-.231.581a7.723,7.723,0,0,1,1.958,1.125l.386-.491A8.356,8.356,0,0,0,666.892,333.633Z" transform="translate(-342.813 -276.988)"/><path class="cls-14" d="M663.756,334.66a7.1,7.1,0,0,1,2.342.425l1.278-3.525a10.864,10.864,0,0,0-3.62-.65Z" transform="translate(-342.813 -276.988)"/><path class="cls-24" d="M666.759,332.387a9.575,9.575,0,0,0-2.72-.47l-.018.625a8.955,8.955,0,0,1,2.544.439Z" transform="translate(-342.813 -276.988)"/><path class="cls-24" d="M664.007,333.042l-.019.625a7.789,7.789,0,0,1,2.226.383l.195-.594A8.427,8.427,0,0,0,664.007,333.042Z" transform="translate(-342.813 -276.988)"/><polygon class="cls-14" points="317.898 57.672 320.943 57.678 320.943 53.928 317.898 53.922 317.898 57.672"/><rect class="cls-23" x="318.156" y="54.916" width="2.517" height="0.625"/><rect class="cls-23" x="318.156" y="56.041" width="2.517" height="0.625"/><polygon class="cls-14" points="314.853 57.672 317.898 57.678 317.898 53.928 314.853 53.922 314.853 57.672"/><rect class="cls-23" x="315.111" y="54.916" width="2.517" height="0.625"/><rect class="cls-23" x="315.111" y="56.041" width="2.517" height="0.625"/><polygon class="cls-14" points="311.807 57.672 314.853 57.678 314.853 53.928 311.807 53.922 311.807 57.672"/><rect class="cls-23" x="312.065" y="54.916" width="2.517" height="0.625"/><rect class="cls-23" x="312.065" y="56.041" width="2.517" height="0.625"/><polygon class="cls-14" points="308.762 57.672 311.807 57.678 311.807 53.928 308.762 53.922 308.762 57.672"/><rect class="cls-23" x="309.02" y="54.916" width="2.517" height="0.625"/><rect class="cls-23" x="309.02" y="56.041" width="2.517" height="0.625"/><polygon class="cls-14" points="305.717 57.672 308.762 57.678 308.762 53.928 305.717 53.922 305.717 57.672"/><rect class="cls-23" x="305.975" y="54.916" width="2.517" height="0.625"/><rect class="cls-23" x="305.975" y="56.041" width="2.517" height="0.625"/><polygon class="cls-14" points="302.671 57.672 305.717 57.678 305.717 53.928 302.671 53.922 302.671 57.672"/><rect class="cls-23" x="302.929" y="54.916" width="2.517" height="0.625"/><rect class="cls-23" x="302.929" y="56.041" width="2.517" height="0.625"/><polygon class="cls-14" points="299.626 57.672 302.671 57.678 302.671 53.928 299.626 53.922 299.626 57.672"/><rect class="cls-23" x="299.884" y="54.916" width="2.517" height="0.625"/><rect class="cls-23" x="299.884" y="56.041" width="2.517" height="0.625"/><polygon class="cls-14" points="296.581 57.672 299.626 57.678 299.626 53.928 296.581 53.922 296.581 57.672"/><rect class="cls-23" x="296.839" y="54.916" width="2.517" height="0.625"/><rect class="cls-23" x="296.839" y="56.041" width="2.517" height="0.625"/><polygon class="cls-14" points="293.535 57.672 296.581 57.678 296.581 53.928 293.535 53.922 293.535 57.672"/><rect class="cls-23" x="293.793" y="54.916" width="2.517" height="0.625"/><rect class="cls-23" x="293.793" y="56.041" width="2.517" height="0.625"/><polygon class="cls-14" points="290.49 57.672 293.535 57.678 293.535 53.928 290.49 53.922 290.49 57.672"/><rect class="cls-23" x="290.748" y="54.916" width="2.517" height="0.625"/><rect class="cls-23" x="290.748" y="56.041" width="2.517" height="0.625"/><polygon class="cls-14" points="287.466 57.677 290.49 57.678 290.49 53.928 287.423 53.927 287.466 57.677"/><rect class="cls-23" x="287.703" y="54.916" width="2.517" height="0.625"/><rect class="cls-23" x="287.703" y="56.041" width="2.517" height="0.625"/><path class="cls-14" d="M627.94,335.107a6.722,6.722,0,0,1,2.339-.436l-.044-3.75a10.459,10.459,0,0,0-3.615.677Z" transform="translate(-342.813 -276.988)"/><path class="cls-24" d="M629.95,331.923a9.3,9.3,0,0,0-2.713.507l.2.592a8.65,8.65,0,0,1,2.537-.474Z" transform="translate(-342.813 -276.988)"/><path class="cls-24" d="M627.6,333.5l.2.591a7.554,7.554,0,0,1,2.219-.414l-.026-.625A8.189,8.189,0,0,0,627.6,333.5Z" transform="translate(-342.813 -276.988)"/><path class="cls-14" d="M625.889,336.316a6.962,6.962,0,0,1,2.053-1.2l-1.32-3.51a10.7,10.7,0,0,0-3.17,1.864Z" transform="translate(-342.813 -276.988)"/><path class="cls-24" d="M626.69,332.631a10.113,10.113,0,0,0-2.375,1.408l.392.487a9.524,9.524,0,0,1,2.221-1.317Z" transform="translate(-342.813 -276.988)"/><path class="cls-24" d="M625.021,334.915l.392.487a8.368,8.368,0,0,1,1.944-1.153l-.238-.578A9.033,9.033,0,0,0,625.021,334.915Z" transform="translate(-342.813 -276.988)"/><path class="cls-14" d="M624.372,338.154a6.614,6.614,0,0,1,1.521-1.834l-2.438-2.849a10.341,10.341,0,0,0-2.343,2.831Z" transform="translate(-342.813 -276.988)"/><path class="cls-24" d="M623.877,334.422a9.044,9.044,0,0,0-1.754,2.128l.534.325a8.426,8.426,0,0,1,1.641-1.991Z" transform="translate(-342.813 -276.988)"/><path class="cls-24" d="M623.084,337.135l.535.324a7.339,7.339,0,0,1,1.436-1.743l-.42-.462A7.95,7.95,0,0,0,623.084,337.135Z" transform="translate(-342.813 -276.988)"/><path class="cls-14" d="M623.578,340.4a6.955,6.955,0,0,1,.8-2.238l-3.261-1.852a10.709,10.709,0,0,0-1.235,3.467Z" transform="translate(-342.813 -276.988)"/><path class="cls-24" d="M621.831,337.053a10.193,10.193,0,0,0-.927,2.6l.614.122a9.53,9.53,0,0,1,.866-2.433Z" transform="translate(-342.813 -276.988)"/><path class="cls-24" d="M622.008,339.876l.613.122a8.481,8.481,0,0,1,.758-2.128l-.553-.291A9.056,9.056,0,0,0,622.008,339.876Z" transform="translate(-342.813 -276.988)"/><path class="cls-14" d="M623.59,342.78a6.655,6.655,0,0,1-.006-2.384l-3.7-.623a10.373,10.373,0,0,0,.014,3.673Z" transform="translate(-342.813 -276.988)"/><path class="cls-24" d="M620.816,340.232a9.265,9.265,0,0,0,.019,2.757l.618-.093a8.715,8.715,0,0,1-.018-2.58Z" transform="translate(-342.813 -276.988)"/><path class="cls-24" d="M621.948,342.822l.618-.093a7.543,7.543,0,0,1-.016-2.26l-.619-.085A8.166,8.166,0,0,0,621.948,342.822Z" transform="translate(-342.813 -276.988)"/><path class="cls-14" d="M624.414,345.009a6.988,6.988,0,0,1-.818-2.23l-3.69.666a10.711,10.711,0,0,0,1.27,3.454Z" transform="translate(-342.813 -276.988)"/><path class="cls-24" d="M620.931,343.563a10.424,10.424,0,0,0,.957,2.592l.549-.3a9.79,9.79,0,0,1-.894-2.423Z" transform="translate(-342.813 -276.988)"/><path class="cls-24" d="M622.876,345.617l.549-.3a8.728,8.728,0,0,1-.782-2.12l-.611.131A9.311,9.311,0,0,0,622.876,345.617Z" transform="translate(-342.813 -276.988)"/><path class="cls-14" d="M625.949,346.834a6.813,6.813,0,0,1-1.529-1.828l-3.239,1.891a10.565,10.565,0,0,0,2.364,2.814Z" transform="translate(-342.813 -276.988)"/><path class="cls-24" d="M622.189,346.653a9.314,9.314,0,0,0,1.782,2.106l.415-.468a8.669,8.669,0,0,1-1.667-1.97Z" transform="translate(-342.813 -276.988)"/><path class="cls-24" d="M624.718,347.916l.415-.467a7.538,7.538,0,0,1-1.46-1.725l-.53.332A8.159,8.159,0,0,0,624.718,347.916Z" transform="translate(-342.813 -276.988)"/><path class="cls-14" d="M628.016,348.015a6.959,6.959,0,0,1-2.063-1.185l-2.4,2.877a10.713,10.713,0,0,0,3.19,1.833Z" transform="translate(-342.813 -276.988)"/><path class="cls-24" d="M624.417,349.132a9.483,9.483,0,0,0,2.393,1.376l.23-.581a8.865,8.865,0,0,1-2.237-1.287Z" transform="translate(-342.813 -276.988)"/><path class="cls-24" d="M627.224,349.462l.231-.581a7.744,7.744,0,0,1-1.958-1.126l-.386.492A8.356,8.356,0,0,0,627.224,349.462Z" transform="translate(-342.813 -276.988)"/><path class="cls-14" d="M630.36,348.435a7.134,7.134,0,0,1-2.342-.426l-1.278,3.526a10.863,10.863,0,0,0,3.62.649Z" transform="translate(-342.813 -276.988)"/><path class="cls-24" d="M627.357,350.708a9.573,9.573,0,0,0,2.72.469l.018-.625a8.954,8.954,0,0,1-2.544-.438Z" transform="translate(-342.813 -276.988)"/><path class="cls-24" d="M630.11,350.053l.018-.625a7.825,7.825,0,0,1-2.226-.384l-.2.6A8.5,8.5,0,0,0,630.11,350.053Z" transform="translate(-342.813 -276.988)"/><ellipse class="cls-17" cx="319.17" cy="64.521" rx="7.391" ry="6.703"/><ellipse class="cls-17" cx="304.17" cy="64.521" rx="7.391" ry="6.703"/><ellipse class="cls-17" cx="289.17" cy="64.521" rx="7.391" ry="6.703"/><path class="cls-19" d="M629.447,329.557h.685c.174-5.084,4.77-9.158,10.416-9.158h19.985a2.343,2.343,0,0,1,2.268,1.54,1.877,1.877,0,0,1,.1.606v7.012h1.747a1.526,1.526,0,0,1,1.526,1.526v3.724h-38.25v-3.724A1.526,1.526,0,0,1,629.447,329.557Z" transform="translate(-342.813 -276.988)"/><path class="cls-25" d="M630.123,329.856v1.808c0,.054,0,.108.008.163a34.529,34.529,0,0,0,14.885.267c8.515-1.589,15.255-5.642,17.785-10.155a2.343,2.343,0,0,0-2.268-1.54H640.548C634.791,320.4,630.123,324.633,630.123,329.856Z" transform="translate(-342.813 -276.988)"/></g><g id="target"><rect class="cls-18" x="304.25" y="123.351" width="6.625" height="14.361"/><rect class="cls-26" x="285.125" y="100.212" width="44.75" height="23.75"/><path d="M628.016,397.946v-5.913h-.25v5.916Z" transform="translate(-342.813 -276.988)"/><path d="M629.225,397.942v-5.909h-.25v5.913Z" transform="translate(-342.813 -276.988)"/><path d="M626.675,397.946v-5.913h-.25v5.916Z" transform="translate(-342.813 -276.988)"/><path d="M625.188,397.946v-5.913h-.25v5.916Z" transform="translate(-342.813 -276.988)"/><rect class="cls-14" x="282.125" y="115.045" width="6" height="5.916"/><path d="M628.016,392.029v-5.913h-.25v5.917Z" transform="translate(-342.813 -276.988)"/><path d="M629.225,392.025v-5.909h-.25v5.913Z" transform="translate(-342.813 -276.988)"/><path d="M626.675,392.029v-5.913h-.25v5.917Z" transform="translate(-342.813 -276.988)"/><path d="M625.188,392.029v-5.913h-.25v5.916Z" transform="translate(-342.813 -276.988)"/><rect class="cls-14" x="282.125" y="109.128" width="6" height="5.916"/><path d="M628.016,386.112V380.2h-.25v5.917Z" transform="translate(-342.813 -276.988)"/><path d="M629.225,386.108V380.2h-.25v5.913Z" transform="translate(-342.813 -276.988)"/><path d="M626.675,386.112V380.2h-.25v5.917Z" transform="translate(-342.813 -276.988)"/><path d="M625.188,386.112V380.2h-.25v5.916Z" transform="translate(-342.813 -276.988)"/><rect class="cls-14" x="282.125" y="103.212" width="6" height="5.916"/><path d="M630.942,377.278H637.4v-.25h-6.458Z" transform="translate(-342.813 -276.988)"/><path d="M630.946,378.486h6.45v-.25h-6.454Z" transform="translate(-342.813 -276.988)"/><path d="M630.942,375.937H637.4v-.25h-6.458Z" transform="translate(-342.813 -276.988)"/><path d="M630.942,374.45H637.4v-.25h-6.458Z" transform="translate(-342.813 -276.988)"/><rect class="cls-14" x="288.125" y="97.212" width="6.458" height="6"/><path d="M637.4,377.278h6.454v-.25H637.4Z" transform="translate(-342.813 -276.988)"/><path d="M637.4,378.486h6.45v-.25H637.4Z" transform="translate(-342.813 -276.988)"/><path d="M637.4,375.937h6.454v-.25H637.4Z" transform="translate(-342.813 -276.988)"/><path d="M637.4,374.45h6.454v-.25H637.4Z" transform="translate(-342.813 -276.988)"/><rect class="cls-14" x="294.584" y="97.212" width="6.458" height="6"/><path d="M643.858,377.278h6.455v-.25h-6.459Z" transform="translate(-342.813 -276.988)"/><path d="M643.863,378.486h6.45v-.25h-6.455Z" transform="translate(-342.813 -276.988)"/><path d="M643.858,375.937h6.455v-.25h-6.459Z" transform="translate(-342.813 -276.988)"/><path d="M643.858,374.45h6.455v-.25h-6.458Z" transform="translate(-342.813 -276.988)"/><rect class="cls-14" x="301.042" y="97.212" width="6.458" height="6"/><path d="M650.317,377.278h6.454v-.25h-6.458Z" transform="translate(-342.813 -276.988)"/><path d="M650.321,378.486h6.45v-.25h-6.454Z" transform="translate(-342.813 -276.988)"/><path d="M650.317,375.937h6.454v-.25h-6.458Z" transform="translate(-342.813 -276.988)"/><path d="M650.317,374.45h6.454v-.25h-6.458Z" transform="translate(-342.813 -276.988)"/><rect class="cls-14" x="307.5" y="97.212" width="6.458" height="6"/><path d="M656.775,377.278h6.454v-.25h-6.458Z" transform="translate(-342.813 -276.988)"/><path d="M656.779,378.486h6.45v-.25h-6.454Z" transform="translate(-342.813 -276.988)"/><path d="M656.775,375.937h6.454v-.25h-6.458Z" transform="translate(-342.813 -276.988)"/><path d="M656.775,374.45h6.454v-.25h-6.457Z" transform="translate(-342.813 -276.988)"/><rect class="cls-14" x="313.959" y="97.212" width="6.458" height="6"/><path d="M663.233,377.278h6.455v-.25h-6.459Z" transform="translate(-342.813 -276.988)"/><path d="M663.238,378.486h6.45v-.25h-6.455Z" transform="translate(-342.813 -276.988)"/><path d="M663.233,375.937h6.455v-.25h-6.459Z" transform="translate(-342.813 -276.988)"/><path d="M663.233,374.45h6.455v-.25H663.23Z" transform="translate(-342.813 -276.988)"/><rect class="cls-14" x="320.417" y="97.212" width="6.458" height="6"/><path d="M672.609,380.2v5.913h.25V380.2Z" transform="translate(-342.813 -276.988)"/><path d="M671.4,380.207v5.909h.25V380.2Z" transform="translate(-342.813 -276.988)"/><path d="M673.95,380.2v5.913h.25V380.2Z" transform="translate(-342.813 -276.988)"/><path d="M675.437,380.2v5.913h.25V380.2Z" transform="translate(-342.813 -276.988)"/><rect class="cls-14" x="326.875" y="103.212" width="6" height="5.916"/><path d="M672.609,386.12v5.913h.25v-5.917Z" transform="translate(-342.813 -276.988)"/><path d="M671.4,386.124v5.909h.25V386.12Z" transform="translate(-342.813 -276.988)"/><path d="M673.95,386.12v5.913h.25v-5.917Z" transform="translate(-342.813 -276.988)"/><path d="M675.437,386.12v5.913h.25v-5.916Z" transform="translate(-342.813 -276.988)"/><rect class="cls-14" x="326.875" y="109.129" width="6" height="5.916"/><path d="M672.609,392.037v5.912h.25v-5.916Z" transform="translate(-342.813 -276.988)"/><path d="M671.4,392.04v5.909h.25v-5.912Z" transform="translate(-342.813 -276.988)"/><path d="M673.95,392.037v5.912h.25v-5.916Z" transform="translate(-342.813 -276.988)"/><path d="M675.437,392.037v5.912h.25v-5.916Z" transform="translate(-342.813 -276.988)"/><rect class="cls-14" x="326.875" y="115.045" width="6" height="5.916"/><path d="M669.683,400.871h-6.454v.25h6.459Z" transform="translate(-342.813 -276.988)"/><path d="M669.679,399.662h-6.45v.25h6.454Z" transform="translate(-342.813 -276.988)"/><path d="M669.683,402.212h-6.454v.25h6.459Z" transform="translate(-342.813 -276.988)"/><path d="M669.683,403.7h-6.454v.25h6.458Z" transform="translate(-342.813 -276.988)"/><rect class="cls-14" x="320.417" y="120.962" width="6.458" height="6"/><path d="M663.225,400.871h-6.454v.25h6.458Z" transform="translate(-342.813 -276.988)"/><path d="M663.221,399.662h-6.45v.25h6.454Z" transform="translate(-342.813 -276.988)"/><path d="M663.225,402.212h-6.454v.25h6.458Z" transform="translate(-342.813 -276.988)"/><path d="M663.225,403.7h-6.454v.25h6.457Z" transform="translate(-342.813 -276.988)"/><rect class="cls-14" x="313.958" y="120.962" width="6.458" height="6"/><path d="M656.767,400.871h-6.454v.25h6.458Z" transform="translate(-342.813 -276.988)"/><path d="M656.762,399.662h-6.449v.25h6.454Z" transform="translate(-342.813 -276.988)"/><path d="M656.767,402.212h-6.454v.25h6.458Z" transform="translate(-342.813 -276.988)"/><path d="M656.767,403.7h-6.454v.25h6.457Z" transform="translate(-342.813 -276.988)"/><rect class="cls-14" x="307.5" y="120.962" width="6.458" height="6"/><path d="M650.308,400.871h-6.454v.25h6.459Z" transform="translate(-342.813 -276.988)"/><path d="M650.3,399.662h-6.45v.25h6.454Z" transform="translate(-342.813 -276.988)"/><path d="M650.308,402.212h-6.454v.25h6.459Z" transform="translate(-342.813 -276.988)"/><path d="M650.308,403.7h-6.454v.25h6.458Z" transform="translate(-342.813 -276.988)"/><rect class="cls-14" x="301.042" y="120.962" width="6.458" height="6"/><path d="M643.85,400.871H637.4v.25h6.458Z" transform="translate(-342.813 -276.988)"/><path d="M643.846,399.662H637.4v.25h6.454Z" transform="translate(-342.813 -276.988)"/><path d="M643.85,402.212H637.4v.25h6.458Z" transform="translate(-342.813 -276.988)"/><path d="M643.85,403.7H637.4v.25h6.457Z" transform="translate(-342.813 -276.988)"/><rect class="cls-14" x="294.583" y="120.962" width="6.458" height="6"/><path d="M637.392,400.871h-6.454v.25H637.4Z" transform="translate(-342.813 -276.988)"/><path d="M637.387,399.662h-6.449v.25h6.454Z" transform="translate(-342.813 -276.988)"/><path d="M637.392,402.212h-6.454v.25H637.4Z" transform="translate(-342.813 -276.988)"/><path d="M637.392,403.7h-6.454v.25H637.4Z" transform="translate(-342.813 -276.988)"/><rect class="cls-14" x="288.125" y="120.962" width="6.458" height="6"/><path d="M627.766,380.2h.25v-2.921h2.922v-.25h-3.172Z" transform="translate(-342.813 -276.988)"/><path d="M628.975,380.2h.25v-1.713h1.713v-.25h-1.963Z" transform="translate(-342.813 -276.988)"/><path d="M626.425,380.2h.25v-4.262h4.263v-.25h-4.513Z" transform="translate(-342.813 -276.988)"/><polygon class="cls-14" points="282.125 97.212 288.125 97.212 288.125 97.212 282.125 97.212 282.125 103.212 282.125 103.212 282.125 97.212"/><path d="M624.938,380.2h.25V374.45h5.75v-.25h-6Z" transform="translate(-342.813 -276.988)"/><rect class="cls-14" x="282.125" y="97.212" width="6" height="6"/><path d="M669.688,377.028v.25h2.921V380.2h.25v-3.171Z" transform="translate(-342.813 -276.988)"/><path d="M669.688,378.236v.25H671.4V380.2h.25v-1.963Z" transform="translate(-342.813 -276.988)"/><path d="M669.688,375.687v.25h4.262V380.2h.25v-4.512Z" transform="translate(-342.813 -276.988)"/><polygon class="cls-14" points="332.875 97.212 332.875 103.212 332.875 103.212 332.875 97.212 326.875 97.212 326.875 97.212 332.875 97.212"/><path d="M669.688,374.2v.25h5.749v5.75h.25v-6Z" transform="translate(-342.813 -276.988)"/><rect class="cls-14" x="326.875" y="97.212" width="6" height="6"/><path d="M672.859,397.949h-.25v2.922h-2.921v.25h3.171Z" transform="translate(-342.813 -276.988)"/><path d="M671.65,397.949h-.25v1.713h-1.712v.25h1.962Z" transform="translate(-342.813 -276.988)"/><path d="M674.2,397.949h-.25v4.263h-4.262v.25H674.2Z" transform="translate(-342.813 -276.988)"/><polygon class="cls-14" points="332.875 126.961 326.875 126.961 326.875 126.962 332.875 126.962 332.875 120.962 332.875 120.962 332.875 126.961"/><path d="M675.687,397.949h-.25v5.75h-5.749v.25h6Z" transform="translate(-342.813 -276.988)"/><rect class="cls-14" x="326.875" y="120.962" width="6" height="6"/><path d="M630.938,401.121v-.25h-2.922v-2.922h-.25v3.172Z" transform="translate(-342.813 -276.988)"/><path d="M630.938,399.912v-.25h-1.713v-1.713h-.25v1.963Z" transform="translate(-342.813 -276.988)"/><path d="M630.938,402.462v-.25h-4.263v-4.263h-.25v4.513Z" transform="translate(-342.813 -276.988)"/><polygon class="cls-14" points="282.125 126.961 282.125 120.962 282.125 120.962 282.125 126.962 288.125 126.962 288.125 126.961 282.125 126.961"/><path d="M630.938,403.949v-.25h-5.75v-5.75h-.25v6Z" transform="translate(-342.813 -276.988)"/><rect class="cls-14" x="282.125" y="120.962" width="6" height="6"/><circle class="cls-27" cx="307.375" cy="111.712" r="10.25"/><circle class="cls-28" cx="307.375" cy="111.712" r="5.875"/><line class="cls-29" x1="307.5" y1="108.587" x2="307.5" y2="115.337"/><line class="cls-29" x1="304.25" y1="111.837" x2="311" y2="111.837"/></g><g id="small_target" data-name="small target"><rect class="cls-18" x="222.839" y="122.351" width="6.625" height="14.361"/><rect class="cls-26" x="210.496" y="98.968" width="31.25" height="23.75"/><path d="M553.387,396.7v-5.913h-.25v5.917Z" transform="translate(-342.813 -276.988)"/><path d="M554.6,396.7v-5.909h-.25V396.7Z" transform="translate(-342.813 -276.988)"/><path d="M552.047,396.7v-5.913h-.25v5.917Z" transform="translate(-342.813 -276.988)"/><path d="M550.559,396.7v-5.913h-.25v5.916Z" transform="translate(-342.813 -276.988)"/><rect class="cls-14" x="207.496" y="113.801" width="6" height="5.916"/><path d="M553.387,390.785v-5.912h-.25v5.916Z" transform="translate(-342.813 -276.988)"/><path d="M554.6,390.782v-5.909h-.25v5.912Z" transform="translate(-342.813 -276.988)"/><path d="M552.047,390.785v-5.912h-.25v5.916Z" transform="translate(-342.813 -276.988)"/><path d="M550.559,390.785v-5.912h-.25v5.916Z" transform="translate(-342.813 -276.988)"/><rect class="cls-14" x="207.496" y="107.885" width="6" height="5.916"/><path d="M553.387,384.869v-5.913h-.25v5.917Z" transform="translate(-342.813 -276.988)"/><path d="M554.6,384.865v-5.909h-.25v5.913Z" transform="translate(-342.813 -276.988)"/><path d="M552.047,384.869v-5.913h-.25v5.917Z" transform="translate(-342.813 -276.988)"/><path d="M550.559,384.869v-5.913h-.25v5.916Z" transform="translate(-342.813 -276.988)"/><rect class="cls-14" x="207.496" y="101.968" width="6" height="5.916"/><path d="M556.313,376.034h6.308v-.25h-6.312Z" transform="translate(-342.813 -276.988)"/><path d="M556.317,377.243h6.3v-.25h-6.308Z" transform="translate(-342.813 -276.988)"/><path d="M556.313,374.693h6.308v-.25h-6.312Z" transform="translate(-342.813 -276.988)"/><path d="M556.313,373.206h6.308v-.25H556.31Z" transform="translate(-342.813 -276.988)"/><rect class="cls-14" x="213.497" y="95.968" width="6.312" height="6"/><path d="M562.626,376.034h6.308v-.25h-6.313Z" transform="translate(-342.813 -276.988)"/><path d="M562.63,377.243h6.3v-.25h-6.308Z" transform="translate(-342.813 -276.988)"/><path d="M562.626,374.693h6.308v-.25h-6.313Z" transform="translate(-342.813 -276.988)"/><path d="M562.626,373.206h6.308v-.25h-6.312Z" transform="translate(-342.813 -276.988)"/><rect class="cls-14" x="219.809" y="95.968" width="6.312" height="6"/><path d="M568.938,376.034h6.308v-.25h-6.312Z" transform="translate(-342.813 -276.988)"/><path d="M568.942,377.243h6.3v-.25h-6.308Z" transform="translate(-342.813 -276.988)"/><path d="M568.938,374.693h6.308v-.25h-6.312Z" transform="translate(-342.813 -276.988)"/><path d="M568.938,373.206h6.308v-.25h-6.311Z" transform="translate(-342.813 -276.988)"/><rect class="cls-14" x="226.122" y="95.968" width="6.312" height="6"/><path d="M575.251,376.034h6.308v-.25h-6.313Z" transform="translate(-342.813 -276.988)"/><path d="M575.255,377.243h6.3v-.25h-6.308Z" transform="translate(-342.813 -276.988)"/><path d="M575.251,374.693h6.308v-.25h-6.313Z" transform="translate(-342.813 -276.988)"/><path d="M575.251,373.206h6.308v-.25h-6.312Z" transform="translate(-342.813 -276.988)"/><rect class="cls-14" x="232.434" y="95.968" width="6.312" height="6"/><path d="M584.48,378.96v5.913h.25v-5.917Z" transform="translate(-342.813 -276.988)"/><path d="M583.272,378.964v5.909h.25V378.96Z" transform="translate(-342.813 -276.988)"/><path d="M585.821,378.96v5.913h.25v-5.917Z" transform="translate(-342.813 -276.988)"/><path d="M587.309,378.96v5.913h.25v-5.916Z" transform="translate(-342.813 -276.988)"/><rect class="cls-14" x="238.746" y="101.968" width="6" height="5.916"/><path d="M584.48,384.876v5.913h.25v-5.916Z" transform="translate(-342.813 -276.988)"/><path d="M583.272,384.88v5.909h.25v-5.913Z" transform="translate(-342.813 -276.988)"/><path d="M585.821,384.876v5.913h.25v-5.916Z" transform="translate(-342.813 -276.988)"/><path d="M587.309,384.876v5.913h.25v-5.916Z" transform="translate(-342.813 -276.988)"/><rect class="cls-14" x="238.746" y="107.885" width="6" height="5.916"/><path d="M584.48,390.793v5.913h.25v-5.917Z" transform="translate(-342.813 -276.988)"/><path d="M583.272,390.8v5.909h.25v-5.913Z" transform="translate(-342.813 -276.988)"/><path d="M585.821,390.793v5.913h.25v-5.917Z" transform="translate(-342.813 -276.988)"/><path d="M587.309,390.793v5.913h.25V390.79Z" transform="translate(-342.813 -276.988)"/><rect class="cls-14" x="238.746" y="113.802" width="6" height="5.916"/><path d="M581.555,399.627h-6.309v.25h6.313Z" transform="translate(-342.813 -276.988)"/><path d="M581.551,398.419h-6.305v.25h6.309Z" transform="translate(-342.813 -276.988)"/><path d="M581.555,400.968h-6.309v.25h6.313Z" transform="translate(-342.813 -276.988)"/><path d="M581.555,402.456h-6.309v.25h6.312Z" transform="translate(-342.813 -276.988)"/><rect class="cls-14" x="232.434" y="119.718" width="6.312" height="6"/><path d="M575.242,399.627h-6.308v.25h6.312Z" transform="translate(-342.813 -276.988)"/><path d="M575.238,398.419h-6.3v.25h6.308Z" transform="translate(-342.813 -276.988)"/><path d="M575.242,400.968h-6.308v.25h6.312Z" transform="translate(-342.813 -276.988)"/><path d="M575.242,402.456h-6.308v.25h6.312Z" transform="translate(-342.813 -276.988)"/><rect class="cls-14" x="226.121" y="119.718" width="6.312" height="6"/><path d="M568.93,399.627h-6.309v.25h6.313Z" transform="translate(-342.813 -276.988)"/><path d="M568.926,398.419h-6.305v.25h6.309Z" transform="translate(-342.813 -276.988)"/><path d="M568.93,400.968h-6.309v.25h6.313Z" transform="translate(-342.813 -276.988)"/><path d="M568.93,402.456h-6.309v.25h6.312Z" transform="translate(-342.813 -276.988)"/><rect class="cls-14" x="219.809" y="119.718" width="6.312" height="6"/><path d="M562.617,399.627h-6.308v.25h6.312Z" transform="translate(-342.813 -276.988)"/><path d="M562.613,398.419h-6.3v.25h6.308Z" transform="translate(-342.813 -276.988)"/><path d="M562.617,400.968h-6.308v.25h6.312Z" transform="translate(-342.813 -276.988)"/><path d="M562.617,402.456h-6.308v.25h6.312Z" transform="translate(-342.813 -276.988)"/><rect class="cls-14" x="213.496" y="119.718" width="6.312" height="6"/><path d="M553.137,378.956h.25v-2.922h2.922v-.25h-3.172Z" transform="translate(-342.813 -276.988)"/><path d="M554.346,378.956h.25v-1.713h1.713v-.25h-1.963Z" transform="translate(-342.813 -276.988)"/><path d="M551.8,378.956h.25v-4.263h4.262v-.25H551.8Z" transform="translate(-342.813 -276.988)"/><polygon class="cls-14" points="207.497 95.968 213.496 95.968 213.496 95.968 207.496 95.968 207.496 101.968 207.497 101.968 207.497 95.968"/><path d="M550.309,378.956h.25v-5.75h5.75v-.25h-6Z" transform="translate(-342.813 -276.988)"/><rect class="cls-14" x="207.496" y="95.968" width="6" height="6"/><path d="M581.559,375.784v.25h2.921v2.922h.25v-3.172Z" transform="translate(-342.813 -276.988)"/><path d="M581.559,376.993v.25h1.713v1.713h.25v-1.963Z" transform="translate(-342.813 -276.988)"/><path d="M581.559,374.443v.25h4.262v4.263h.25v-4.513Z" transform="translate(-342.813 -276.988)"/><polygon class="cls-14" points="244.746 95.968 244.746 101.968 244.746 101.968 244.746 95.968 238.746 95.968 238.746 95.968 244.746 95.968"/><path d="M581.559,372.956v.25h5.75v5.75h.25v-6Z" transform="translate(-342.813 -276.988)"/><rect class="cls-14" x="238.746" y="95.968" width="6" height="6"/><path d="M584.731,396.706h-.25v2.921h-2.922v.25h3.172Z" transform="translate(-342.813 -276.988)"/><path d="M583.522,396.706h-.25v1.713h-1.713v.25h1.963Z" transform="translate(-342.813 -276.988)"/><path d="M586.071,396.706h-.25v4.262h-4.262v.25h4.512Z" transform="translate(-342.813 -276.988)"/><polygon class="cls-14" points="244.746 125.718 238.746 125.718 238.746 125.718 244.746 125.718 244.746 119.718 244.746 119.718 244.746 125.718"/><path d="M587.559,396.706h-.25v5.75h-5.75v.25h6Z" transform="translate(-342.813 -276.988)"/><rect class="cls-14" x="238.746" y="119.718" width="6" height="6"/><path d="M556.309,399.878v-.25h-2.922v-2.922h-.25v3.172Z" transform="translate(-342.813 -276.988)"/><path d="M556.309,398.669v-.25H554.6v-1.713h-.25v1.963Z" transform="translate(-342.813 -276.988)"/><path d="M556.309,401.218v-.25h-4.262v-4.262h-.25v4.512Z" transform="translate(-342.813 -276.988)"/><polygon class="cls-14" points="207.497 125.718 207.497 119.718 207.496 119.718 207.496 125.718 213.496 125.718 213.496 125.718 207.497 125.718"/><path d="M556.309,402.706v-.25h-5.75v-5.75h-.25v6Z" transform="translate(-342.813 -276.988)"/><rect class="cls-14" x="207.496" y="119.718" width="6" height="6"/><circle class="cls-27" cx="225.964" cy="110.712" r="10.25"/><circle class="cls-28" cx="225.964" cy="110.712" r="5.875"/><line class="cls-29" x1="226.089" y1="107.587" x2="226.089" y2="114.337"/><line class="cls-29" x1="222.839" y1="110.837" x2="229.589" y2="110.837"/></g></svg>